<svg xmlns="http://www.w3.org/2000/svg" xmlns:xlink="http://www.w3.org/1999/xlink" id="svg" version="1.1" width="1000" height="372" style="display: block;">
	<g id="svgg">
		<path id="path0" d="M90.855 0.822 C 89.015 1.238,87.305 1.739,87.055 1.937 C 86.805 2.134,85.899 2.522,85.043 2.798 C 83.562 3.275,79.100 5.441,77.409 6.503 C 71.637 10.130,67.060 14.087,63.101 18.872 C 62.497 19.602,61.648 20.626,61.214 21.146 C 60.781 21.666,60.196 22.611,59.915 23.246 C 59.635 23.881,59.296 24.400,59.162 24.400 C 58.760 24.400,56.545 29.213,55.574 32.200 C 52.203 42.560,58.109 53.568,67.820 55.024 C 68.799 55.171,69.600 55.430,69.600 55.599 C 69.600 55.769,70.555 56.027,71.722 56.173 L 73.844 56.438 74.293 60.477 C 74.539 62.699,74.912 64.625,75.120 64.758 C 75.329 64.891,75.627 65.630,75.782 66.400 C 76.076 67.854,78.418 72.018,79.614 73.214 C 79.991 73.591,80.367 74.058,80.450 74.251 C 81.024 75.592,86.812 79.554,89.433 80.399 C 90.295 80.677,91.180 81.036,91.400 81.197 C 91.620 81.358,92.295 81.608,92.900 81.752 C 93.505 81.897,94.000 82.159,94.000 82.335 C 94.000 82.906,82.104 94.283,77.600 98.020 C 74.381 100.691,74.116 100.918,72.041 102.780 C 71.293 103.451,70.562 104.000,70.416 104.000 C 70.270 104.000,69.802 104.315,69.375 104.700 C 68.514 105.477,65.759 107.578,64.787 108.200 C 64.443 108.420,63.562 108.960,62.830 109.400 C 62.098 109.840,61.000 110.606,60.389 111.102 C 58.818 112.379,57.406 112.538,54.200 111.799 C 52.660 111.444,49.690 110.798,47.600 110.365 C 45.510 109.931,43.530 109.428,43.200 109.247 C 42.870 109.066,40.710 108.608,38.400 108.228 C 36.090 107.849,33.914 107.389,33.565 107.206 C 33.215 107.024,30.605 106.578,27.765 106.215 C 24.924 105.853,22.047 105.386,21.372 105.178 C 19.738 104.675,12.914 104.692,12.600 105.200 C 12.464 105.420,11.700 105.600,10.903 105.600 C 9.132 105.600,4.800 106.773,4.800 107.253 C 4.800 107.444,4.544 107.600,4.231 107.600 C 3.316 107.600,1.138 109.650,0.546 111.068 C -1.188 115.219,1.115 120.230,5.700 122.282 C 6.525 122.652,7.200 123.076,7.200 123.225 C 7.200 123.374,8.055 123.727,9.100 124.010 C 10.145 124.293,11.214 124.689,11.475 124.890 C 13.115 126.154,31.092 126.116,33.488 124.843 C 33.880 124.635,35.550 124.248,37.200 123.982 C 38.850 123.716,40.290 123.382,40.400 123.239 C 40.510 123.096,41.995 122.639,43.700 122.223 C 45.405 121.807,46.800 121.352,46.800 121.212 C 46.800 121.073,47.970 120.624,49.400 120.215 C 50.830 119.806,52.000 119.358,52.000 119.219 C 52.000 119.079,52.990 118.629,54.200 118.218 C 55.410 117.807,56.400 117.319,56.400 117.135 C 56.400 116.690,58.293 116.702,58.568 117.149 C 58.687 117.341,60.453 117.816,62.492 118.205 C 64.531 118.593,66.380 119.041,66.600 119.200 C 66.820 119.359,68.710 119.798,70.800 120.176 C 72.890 120.554,74.960 121.022,75.400 121.214 C 75.840 121.407,77.010 121.717,78.000 121.904 C 79.967 122.274,80.291 123.595,79.130 126.521 C 78.811 127.325,78.806 128.060,79.111 129.121 C 79.345 129.934,79.733 131.571,79.974 132.758 C 80.747 136.562,85.932 143.290,88.790 144.197 C 89.236 144.338,89.600 144.597,89.600 144.773 C 89.600 144.948,90.455 145.414,91.500 145.809 C 92.545 146.204,93.490 146.653,93.600 146.807 C 94.745 148.414,111.600 149.610,111.600 148.084 C 111.600 147.349,111.296 147.243,108.700 147.071 C 103.423 146.722,97.730 145.577,95.205 144.357 C 94.343 143.940,93.463 143.600,93.248 143.600 C 93.033 143.600,92.616 143.375,92.321 143.100 C 92.027 142.825,91.198 142.272,90.481 141.871 C 88.588 140.812,84.962 136.897,84.135 135.018 C 83.743 134.128,83.237 133.272,83.011 133.115 C 82.265 132.597,82.490 124.253,83.271 123.471 C 83.987 122.756,85.445 122.564,85.667 123.157 C 85.788 123.483,90.259 124.141,99.800 125.239 C 104.335 125.761,121.099 125.525,122.200 124.923 C 122.640 124.683,124.169 124.271,125.599 124.007 C 127.028 123.743,128.288 123.408,128.399 123.262 C 128.509 123.116,129.638 122.652,130.907 122.231 C 132.176 121.810,133.413 121.226,133.656 120.933 C 133.899 120.640,134.301 120.399,134.549 120.398 C 135.242 120.395,137.871 117.835,138.180 116.864 C 138.331 116.389,138.622 116.000,138.827 116.000 C 139.032 116.000,139.200 115.096,139.200 113.992 C 139.200 110.505,136.175 107.169,131.907 105.948 C 130.968 105.680,129.996 105.307,129.746 105.119 C 128.134 103.910,108.020 103.950,105.688 105.167 C 105.310 105.365,103.470 105.830,101.600 106.202 C 99.730 106.573,98.020 107.016,97.800 107.185 C 97.580 107.355,96.455 107.802,95.300 108.179 C 94.145 108.556,93.199 108.985,93.199 109.132 C 93.198 109.279,92.388 109.733,91.399 110.140 C 90.409 110.546,89.600 111.041,89.600 111.240 C 89.600 111.438,89.394 111.600,89.141 111.600 C 88.889 111.600,87.854 112.275,86.841 113.100 C 85.150 114.478,84.282 115.375,82.436 117.655 C 81.705 118.558,79.014 118.309,75.600 117.025 C 74.830 116.735,72.850 116.267,71.200 115.985 C 69.550 115.703,68.020 115.341,67.800 115.180 C 67.580 115.019,66.320 114.655,65.000 114.371 C 63.680 114.088,62.915 113.785,63.300 113.699 C 63.685 113.612,64.000 113.402,64.000 113.231 C 64.000 113.061,64.720 112.597,65.600 112.200 C 66.480 111.803,67.200 111.353,67.200 111.200 C 67.200 111.047,67.909 110.602,68.776 110.211 C 69.643 109.820,70.448 109.252,70.564 108.950 C 70.680 108.647,71.006 108.400,71.287 108.399 C 71.569 108.399,72.430 107.859,73.200 107.200 C 73.970 106.541,74.709 106.001,74.842 106.001 C 74.974 106.000,75.552 105.595,76.126 105.100 C 76.699 104.605,77.581 103.892,78.084 103.516 C 83.579 99.409,90.264 93.591,97.048 87.014 C 100.963 83.218,101.234 83.033,102.719 83.140 C 105.183 83.318,115.186 82.429,117.604 81.817 C 123.046 80.439,126.211 79.508,126.398 79.227 C 126.509 79.060,127.140 78.797,127.800 78.643 C 128.460 78.488,129.990 77.902,131.200 77.339 C 132.410 76.777,134.390 75.856,135.600 75.293 C 137.527 74.396,140.871 72.591,143.976 70.772 C 145.859 69.668,152.118 65.237,153.541 64.000 C 153.920 63.670,154.944 62.791,155.815 62.047 C 161.620 57.091,169.065 48.716,169.842 46.266 C 169.993 45.792,170.340 45.222,170.614 45.002 C 170.888 44.781,171.338 43.880,171.614 43.000 C 171.890 42.120,172.315 41.272,172.558 41.115 C 173.346 40.606,173.129 33.473,172.300 32.643 C 171.915 32.258,171.600 31.789,171.600 31.601 C 171.600 31.205,169.320 30.000,168.572 30.000 C 168.294 30.000,167.992 29.775,167.900 29.500 C 167.672 28.817,156.134 28.796,154.761 29.475 C 154.232 29.737,152.720 30.250,151.400 30.615 C 150.080 30.981,148.910 31.409,148.800 31.567 C 148.690 31.726,147.791 32.174,146.801 32.564 C 145.812 32.954,144.912 33.391,144.801 33.536 C 144.691 33.681,143.959 34.160,143.176 34.600 C 140.473 36.118,138.800 37.280,138.800 37.640 C 138.800 37.838,138.575 38.003,138.300 38.006 C 138.025 38.010,137.170 38.553,136.400 39.213 C 135.630 39.873,134.010 41.266,132.800 42.307 C 129.929 44.778,116.405 58.356,111.800 63.391 C 109.820 65.556,107.189 68.424,105.953 69.764 C 104.717 71.104,103.130 72.867,102.426 73.683 C 98.991 77.664,96.000 80.267,96.000 79.273 C 96.000 79.094,94.822 78.713,93.381 78.426 C 91.941 78.140,90.546 77.694,90.281 77.436 C 90.017 77.178,89.170 76.717,88.400 76.413 C 87.630 76.108,86.730 75.627,86.400 75.344 C 83.956 73.247,82.000 71.266,82.000 70.888 C 82.000 70.642,81.761 70.296,81.470 70.120 C 79.906 69.177,77.600 62.148,77.600 58.327 L 77.600 56.800 80.900 56.799 C 85.058 56.797,93.143 56.087,94.200 55.631 C 94.640 55.441,96.510 54.983,98.356 54.612 C 100.202 54.241,102.002 53.782,102.356 53.592 C 102.710 53.402,104.080 52.933,105.400 52.548 C 106.720 52.164,107.890 51.730,108.000 51.584 C 108.110 51.438,109.145 51.007,110.300 50.627 C 111.455 50.247,112.401 49.815,112.401 49.668 C 112.402 49.521,113.212 49.067,114.201 48.660 C 115.191 48.254,116.000 47.759,116.000 47.560 C 116.000 47.362,116.252 47.200,116.560 47.200 C 117.149 47.200,120.181 45.052,123.181 42.509 C 127.166 39.131,131.443 33.984,132.171 31.691 C 132.327 31.201,132.593 30.800,132.764 30.800 C 133.792 30.800,134.675 24.013,134.008 21.234 C 131.974 12.755,113.295 11.166,99.142 18.268 C 98.120 18.780,97.085 19.200,96.842 19.200 C 96.599 19.200,96.400 19.368,96.400 19.573 C 96.400 19.778,96.045 20.059,95.611 20.197 C 94.812 20.450,91.326 22.744,90.079 23.837 C 86.500 26.973,81.600 32.558,81.600 33.501 C 81.600 33.729,81.365 34.005,81.078 34.115 C 80.367 34.388,76.123 43.035,75.783 44.904 C 75.633 45.732,75.365 46.498,75.190 46.606 C 75.014 46.715,74.648 48.423,74.378 50.402 C 73.917 53.774,73.351 54.816,72.622 53.635 C 72.497 53.434,71.632 53.146,70.698 52.995 C 65.846 52.212,59.777 47.451,58.574 43.485 C 58.227 42.338,57.775 41.087,57.571 40.705 C 57.070 39.767,57.094 34.800,57.600 34.800 C 57.820 34.800,58.000 34.383,58.000 33.873 C 58.000 32.809,59.159 28.700,59.544 28.400 C 59.685 28.290,60.122 27.570,60.516 26.800 C 61.637 24.610,62.240 23.613,63.464 21.926 C 64.988 19.825,71.062 13.741,73.374 12.000 C 74.396 11.230,75.451 10.412,75.716 10.183 C 76.193 9.771,78.531 8.412,81.952 6.558 C 82.915 6.035,84.670 5.303,85.852 4.931 C 87.033 4.559,88.000 4.136,88.000 3.992 C 88.000 3.849,89.485 3.401,91.300 2.998 C 94.962 2.185,95.600 1.851,95.600 0.751 C 95.600 -0.164,95.200 -0.158,90.855 0.822 M70.836 12.733 C 70.620 13.136,70.126 13.721,69.737 14.033 C 69.236 14.435,69.296 14.222,69.943 13.300 C 70.931 11.891,71.469 11.549,70.836 12.733 M125.000 18.147 C 125.660 18.503,126.390 18.796,126.622 18.798 C 128.285 18.807,130.677 23.559,130.189 25.885 C 129.618 28.607,129.075 30.400,128.822 30.400 C 128.671 30.400,128.233 31.061,127.848 31.868 C 126.226 35.269,116.721 44.798,114.949 44.800 C 114.701 44.800,114.285 45.056,114.025 45.370 C 113.511 45.990,107.153 49.200,106.439 49.200 C 106.198 49.200,106.000 49.346,106.000 49.524 C 106.000 49.703,105.135 50.070,104.078 50.341 C 103.021 50.612,101.646 51.099,101.022 51.422 C 100.398 51.746,98.338 52.293,96.444 52.638 C 94.550 52.983,92.651 53.453,92.225 53.683 C 91.799 53.912,88.324 54.194,84.503 54.309 L 77.555 54.517 77.754 53.559 C 77.864 53.031,78.164 51.385,78.422 49.900 C 78.680 48.415,79.026 47.200,79.193 47.200 C 79.359 47.200,79.798 46.120,80.168 44.800 C 80.538 43.480,81.012 42.400,81.221 42.400 C 81.429 42.400,81.600 42.164,81.600 41.875 C 81.600 41.244,84.629 36.150,85.666 35.037 C 86.070 34.604,86.400 34.102,86.400 33.922 C 86.400 33.335,94.255 25.696,95.544 25.029 C 96.235 24.672,96.800 24.241,96.800 24.072 C 96.800 23.902,97.610 23.430,98.600 23.022 C 99.590 22.613,100.400 22.162,100.400 22.019 C 100.400 21.875,101.300 21.434,102.400 21.039 C 103.500 20.643,104.400 20.188,104.400 20.027 C 104.400 19.866,105.795 19.393,107.500 18.977 C 109.205 18.561,110.692 18.095,110.803 17.943 C 111.492 17.004,123.196 17.172,125.000 18.147 M163.020 31.530 C 163.229 31.712,164.177 32.105,165.128 32.404 C 167.154 33.040,168.000 34.340,168.000 36.819 C 168.000 38.594,166.924 42.800,166.469 42.800 C 166.319 42.800,165.962 43.327,165.677 43.971 C 165.392 44.615,164.623 45.830,163.968 46.671 C 163.312 47.512,162.377 48.733,161.888 49.385 C 160.269 51.546,154.647 57.258,151.400 60.042 C 149.640 61.552,147.821 63.149,147.358 63.593 C 146.895 64.037,146.402 64.400,146.262 64.400 C 146.123 64.400,144.972 65.172,143.704 66.115 C 140.982 68.140,136.650 70.800,136.073 70.800 C 135.850 70.800,135.607 70.944,135.533 71.119 C 135.372 71.504,128.662 74.800,128.039 74.800 C 127.798 74.800,127.600 74.952,127.600 75.137 C 127.600 75.322,126.835 75.700,125.900 75.978 C 124.965 76.255,123.480 76.804,122.600 77.198 C 121.720 77.592,119.920 78.133,118.600 78.401 C 117.280 78.668,116.020 79.032,115.800 79.209 C 115.245 79.656,107.768 80.487,105.712 80.329 L 104.024 80.200 106.243 77.800 C 107.464 76.480,110.154 73.600,112.221 71.400 C 114.288 69.200,117.554 65.690,119.478 63.600 C 131.676 50.355,146.179 36.754,150.400 34.602 C 151.170 34.210,151.890 33.770,152.000 33.624 C 152.276 33.260,156.327 32.000,157.222 32.000 C 157.624 32.000,158.064 31.820,158.200 31.600 C 158.497 31.119,162.481 31.062,163.020 31.530 M137.200 44.122 C 137.200 44.188,136.525 44.863,135.700 45.622 L 134.200 47.000 135.578 45.500 C 136.862 44.104,137.200 43.816,137.200 44.122 M134.000 47.309 C 134.000 47.370,132.515 48.855,130.700 50.609 L 127.400 53.800 130.591 50.500 C 133.554 47.435,134.000 47.018,134.000 47.309 M159.600 53.725 C 159.600 53.794,159.015 54.379,158.300 55.025 L 157.000 56.200 158.175 54.900 C 159.270 53.688,159.600 53.416,159.600 53.725 M122.800 58.925 C 122.800 58.994,122.215 59.579,121.500 60.225 L 120.200 61.400 121.375 60.100 C 122.470 58.888,122.800 58.616,122.800 58.925 M394.862 87.785 C 391.346 90.270,391.221 94.346,394.677 93.843 C 397.762 93.395,400.384 90.153,399.718 87.610 C 399.410 86.429,396.639 86.529,394.862 87.785 M252.525 96.936 C 251.384 98.123,249.224 99.962,247.725 101.023 C 246.226 102.084,244.910 103.072,244.800 103.220 C 244.690 103.368,244.015 103.788,243.300 104.154 C 242.585 104.521,241.998 104.951,241.995 105.110 C 241.993 105.270,241.273 105.744,240.395 106.164 C 239.518 106.585,238.800 107.058,238.800 107.216 C 238.800 107.374,238.256 107.728,237.591 108.004 C 236.925 108.279,236.250 108.716,236.091 108.974 C 235.931 109.232,235.125 109.757,234.300 110.140 C 233.475 110.524,232.800 110.976,232.800 111.145 C 232.800 111.314,232.170 111.752,231.400 112.119 C 230.630 112.487,230.000 112.926,230.000 113.096 C 230.000 113.266,229.415 113.655,228.700 113.961 C 227.985 114.266,227.097 114.777,226.728 115.095 C 225.956 115.760,224.549 116.548,220.600 118.528 C 214.587 121.543,211.080 121.476,213.840 118.400 C 214.136 118.070,214.968 117.091,215.689 116.224 C 216.410 115.358,219.676 111.938,222.947 108.624 C 229.654 101.830,230.800 100.471,230.800 99.309 C 230.800 97.799,226.561 97.439,225.169 98.831 C 224.378 99.622,224.273 99.631,222.985 99.020 C 220.425 97.805,207.622 97.929,206.803 99.176 C 206.691 99.346,205.957 99.603,205.172 99.747 C 201.795 100.367,195.722 104.368,192.362 108.185 C 190.029 110.836,188.311 112.400,187.731 112.400 C 187.425 112.400,187.071 112.670,186.945 113.000 C 186.818 113.330,186.550 113.600,186.349 113.600 C 186.147 113.600,185.274 114.069,184.407 114.643 C 179.344 117.993,173.100 120.800,170.710 120.800 C 169.414 120.800,169.425 119.850,170.739 118.385 C 171.103 117.980,171.940 116.987,172.600 116.179 C 173.260 115.371,176.320 112.177,179.400 109.082 C 185.871 102.580,187.591 100.536,187.596 99.343 C 187.603 97.762,184.037 97.427,182.241 98.839 C 181.207 99.652,181.128 99.657,179.725 98.991 C 177.112 97.751,166.186 97.874,163.677 99.172 C 163.305 99.365,162.190 99.754,161.200 100.038 C 159.430 100.545,155.771 102.402,154.200 103.590 C 152.841 104.618,147.200 110.378,147.200 110.738 C 147.200 110.925,146.841 111.491,146.403 111.997 C 145.609 112.913,144.806 115.169,144.802 116.500 C 144.801 116.885,144.620 117.200,144.400 117.200 C 144.180 117.200,144.000 117.920,144.000 118.800 C 144.000 119.680,144.180 120.400,144.400 120.400 C 144.620 120.400,144.800 120.764,144.800 121.209 C 144.800 123.350,150.802 123.137,155.761 120.818 C 157.194 120.148,158.554 119.600,158.783 119.600 C 159.012 119.600,159.200 119.434,159.200 119.231 C 159.200 119.028,159.797 118.665,160.527 118.424 C 161.257 118.183,162.202 117.718,162.627 117.391 C 164.121 116.242,166.983 114.450,167.115 114.581 C 167.188 114.654,166.877 115.406,166.424 116.251 C 165.004 118.901,165.263 121.722,167.023 122.760 C 168.480 123.620,170.581 123.879,170.971 123.246 C 171.092 123.052,172.031 122.766,173.060 122.612 C 174.088 122.458,176.075 121.807,177.475 121.166 C 178.875 120.525,180.183 120.000,180.381 120.000 C 180.580 120.000,180.981 119.772,181.271 119.493 C 181.562 119.214,182.565 118.647,183.500 118.232 C 184.435 117.818,185.200 117.355,185.200 117.203 C 185.200 116.963,186.961 116.000,187.400 116.000 C 187.489 116.000,187.464 116.855,187.345 117.900 C 186.748 123.109,191.505 124.304,198.961 120.818 C 200.394 120.148,201.754 119.600,201.983 119.600 C 202.212 119.600,202.400 119.434,202.400 119.231 C 202.400 119.028,203.043 118.650,203.828 118.391 C 204.613 118.132,205.346 117.684,205.457 117.396 C 205.567 117.108,206.081 116.766,206.598 116.636 C 207.115 116.506,208.100 115.928,208.786 115.350 C 210.087 114.256,210.966 114.291,209.863 115.394 C 209.081 116.176,208.705 118.066,208.873 120.379 C 209.054 122.891,212.030 124.450,214.305 123.227 C 214.687 123.021,215.883 122.651,216.963 122.405 C 218.042 122.158,220.060 121.427,221.446 120.778 C 222.832 120.130,224.154 119.600,224.383 119.600 C 224.612 119.600,224.800 119.455,224.800 119.277 C 224.800 118.992,227.525 117.600,228.084 117.600 C 228.202 117.600,228.388 118.534,228.498 119.675 C 228.715 121.936,230.734 124.400,232.371 124.400 C 232.801 124.400,233.264 124.580,233.400 124.800 C 233.703 125.290,239.468 125.337,239.767 124.853 C 239.885 124.662,240.919 124.381,242.065 124.229 C 243.210 124.077,244.879 123.626,245.774 123.227 C 246.668 122.828,248.120 122.272,249.000 121.992 C 249.880 121.713,250.690 121.363,250.800 121.214 C 250.910 121.066,251.809 120.626,252.799 120.236 C 253.788 119.846,254.688 119.409,254.799 119.264 C 255.067 118.913,257.579 117.600,257.982 117.600 C 258.156 117.600,258.383 118.477,258.486 119.550 C 258.690 121.679,260.834 124.400,262.307 124.400 C 262.710 124.400,263.235 124.595,263.473 124.833 C 264.314 125.674,275.293 124.254,276.000 123.213 C 276.110 123.051,277.190 122.595,278.400 122.200 C 279.610 121.805,280.690 121.357,280.800 121.204 C 280.910 121.052,281.855 120.604,282.900 120.209 C 283.945 119.814,284.800 119.372,284.800 119.226 C 284.800 119.080,285.428 118.734,286.196 118.456 C 286.963 118.178,287.818 117.735,288.096 117.471 C 288.373 117.207,289.086 116.776,289.679 116.513 L 290.758 116.036 290.543 117.918 C 289.948 123.108,294.717 124.299,302.161 120.818 C 303.594 120.148,304.954 119.600,305.183 119.600 C 305.412 119.600,305.600 119.447,305.600 119.261 C 305.600 119.074,306.275 118.626,307.100 118.265 C 307.925 117.904,309.410 117.074,310.400 116.420 C 313.328 114.487,313.600 114.346,313.600 114.757 C 313.600 114.969,313.305 115.438,312.945 115.798 C 312.518 116.225,312.222 117.397,312.096 119.158 L 311.902 121.863 313.374 122.732 C 314.946 123.659,316.381 123.831,317.505 123.227 C 317.887 123.021,319.093 122.649,320.185 122.399 C 321.277 122.150,323.127 121.508,324.297 120.973 C 325.467 120.438,326.586 120.000,326.783 120.000 C 326.981 120.000,327.383 119.775,327.678 119.500 C 327.972 119.225,328.929 118.642,329.806 118.204 C 330.683 117.766,331.490 117.296,331.600 117.160 C 331.710 117.023,332.380 116.614,333.089 116.251 C 334.398 115.580,337.041 113.909,337.838 113.248 C 338.078 113.049,338.888 112.571,339.638 112.187 C 340.387 111.803,341.090 111.359,341.200 111.200 C 341.310 111.041,341.985 110.612,342.700 110.246 C 343.415 109.879,344.002 109.449,344.005 109.290 C 344.007 109.130,344.727 108.656,345.605 108.236 C 346.482 107.815,347.200 107.364,347.200 107.232 C 347.200 106.339,349.376 105.875,354.185 105.743 L 359.400 105.600 358.123 106.700 C 357.421 107.305,355.920 108.340,354.788 109.000 C 347.203 113.424,342.869 120.007,345.329 123.371 C 346.089 124.410,348.604 125.187,349.917 124.789 C 350.513 124.608,352.068 124.270,353.373 124.036 C 354.678 123.803,355.848 123.457,355.973 123.267 C 356.098 123.078,356.740 122.793,357.400 122.635 C 358.060 122.476,359.891 121.728,361.469 120.973 C 363.047 120.218,364.532 119.600,364.769 119.600 C 365.006 119.600,365.200 119.456,365.200 119.280 C 365.200 119.104,366.010 118.566,367.000 118.085 C 367.990 117.604,368.800 117.373,368.800 117.572 C 368.800 117.771,368.612 117.996,368.383 118.072 C 367.501 118.366,367.782 121.516,368.785 122.584 C 369.789 123.653,375.600 124.178,375.600 123.200 C 375.600 122.980,375.864 122.800,376.186 122.800 C 376.944 122.800,380.539 121.586,380.800 121.242 C 380.910 121.097,381.810 120.625,382.800 120.194 C 383.790 119.763,384.780 119.273,385.000 119.105 C 385.220 118.937,386.840 118.055,388.600 117.145 C 390.360 116.235,391.890 115.360,392.000 115.201 C 392.110 115.042,392.830 114.591,393.600 114.200 C 395.321 113.325,396.725 110.000,395.374 110.000 C 395.053 110.000,393.439 110.870,393.200 111.172 C 393.090 111.311,391.650 112.224,390.000 113.200 C 388.350 114.176,386.910 115.071,386.800 115.188 C 386.225 115.797,379.113 119.344,377.240 119.956 C 374.176 120.957,372.459 119.998,374.200 118.257 C 374.530 117.927,374.800 117.521,374.800 117.354 C 374.800 116.757,378.067 113.196,383.433 107.943 C 386.435 105.004,389.231 102.251,389.646 101.825 C 391.822 99.588,387.861 97.705,385.107 99.666 C 382.584 101.463,374.460 109.329,373.298 111.100 C 372.974 111.595,372.536 112.000,372.326 112.000 C 372.116 112.000,371.189 112.495,370.265 113.100 C 367.711 114.774,367.304 115.013,362.973 117.382 C 360.758 118.593,358.163 119.860,357.207 120.197 C 356.251 120.535,355.274 120.971,355.035 121.166 C 354.521 121.586,349.957 122.319,349.273 122.091 C 347.777 121.592,349.404 119.829,355.913 114.893 C 361.495 110.659,363.200 108.530,363.200 105.788 C 363.200 102.449,362.245 101.840,357.527 102.176 L 353.800 102.441 355.200 101.224 C 355.970 100.554,356.915 99.735,357.300 99.403 C 357.685 99.071,358.000 98.272,358.000 97.627 C 358.000 93.607,348.936 97.932,347.790 102.499 C 347.642 103.087,346.995 103.740,346.172 104.133 C 345.417 104.493,344.800 104.970,344.800 105.194 C 344.800 105.417,344.601 105.600,344.358 105.600 C 344.114 105.600,343.259 106.095,342.456 106.700 C 341.653 107.305,340.709 107.980,340.358 108.200 C 338.281 109.501,336.157 110.995,335.456 111.648 C 335.012 112.062,334.407 112.400,334.112 112.400 C 333.817 112.400,333.471 112.670,333.345 113.000 C 333.218 113.330,332.950 113.600,332.749 113.600 C 332.547 113.600,331.674 114.069,330.807 114.643 C 322.129 120.386,313.134 122.848,317.139 118.385 C 317.503 117.980,318.340 116.990,319.000 116.185 C 319.660 115.380,322.720 112.174,325.800 109.060 C 335.375 99.382,336.030 98.000,331.043 98.000 C 329.880 98.000,329.070 98.261,328.454 98.835 C 327.586 99.644,327.511 99.649,326.117 98.987 C 323.512 97.751,312.581 97.877,310.077 99.172 C 309.705 99.365,308.590 99.755,307.600 100.040 C 305.641 100.605,302.193 102.335,300.746 103.480 C 298.698 105.101,294.286 109.470,293.705 110.454 C 293.362 111.034,292.523 111.802,291.841 112.161 C 291.158 112.520,289.790 113.343,288.800 113.989 C 287.810 114.635,285.740 115.818,284.200 116.616 C 282.660 117.415,280.806 118.434,280.079 118.880 C 278.595 119.791,277.698 119.450,279.100 118.507 C 279.595 118.175,280.000 117.741,280.000 117.543 C 280.000 117.345,280.427 116.512,280.949 115.691 C 281.471 114.871,282.128 113.300,282.411 112.200 C 282.693 111.100,283.057 110.020,283.219 109.800 C 283.620 109.255,284.306 105.588,284.637 102.219 C 284.791 100.656,285.236 98.904,285.654 98.219 C 286.768 96.392,286.656 94.800,285.414 94.800 C 284.840 94.800,284.251 95.132,284.003 95.595 C 283.600 96.347,280.288 99.252,277.840 101.000 C 277.224 101.440,276.063 102.314,275.260 102.943 C 274.457 103.572,273.395 104.242,272.900 104.433 C 272.405 104.624,272.000 104.965,272.000 105.190 C 272.000 105.416,271.799 105.600,271.554 105.600 C 271.308 105.600,270.273 106.202,269.254 106.937 C 268.234 107.672,267.085 108.386,266.700 108.524 C 266.315 108.662,266.000 108.961,266.000 109.187 C 266.000 109.414,265.775 109.604,265.500 109.609 C 265.225 109.614,264.550 109.979,264.000 110.421 C 263.020 111.209,260.179 113.127,257.800 114.607 C 255.662 115.938,248.400 119.608,248.400 119.358 C 248.400 119.225,248.869 118.558,249.443 117.876 C 250.789 116.277,252.277 113.006,252.882 110.321 C 253.145 109.154,253.500 108.102,253.671 107.982 C 253.842 107.862,254.220 105.680,254.510 103.134 C 254.894 99.773,255.231 98.312,255.741 97.802 C 256.680 96.863,256.466 95.037,255.400 94.889 C 254.870 94.816,253.899 95.507,252.525 96.936 M176.000 100.808 C 178.524 100.852,178.660 101.805,176.439 103.879 C 173.567 106.561,166.728 112.000,166.227 112.000 C 166.130 112.000,164.867 112.810,163.421 113.800 C 161.975 114.790,160.656 115.600,160.489 115.600 C 160.322 115.600,159.558 116.027,158.790 116.548 C 154.263 119.625,146.712 121.029,148.229 118.512 C 148.466 118.120,149.006 117.191,149.429 116.446 C 149.853 115.702,150.650 114.615,151.200 114.030 C 151.750 113.445,152.748 112.345,153.418 111.584 C 156.799 107.743,163.271 103.308,167.400 102.002 C 168.280 101.723,169.180 101.355,169.400 101.183 C 169.987 100.725,171.998 100.464,173.600 100.638 C 174.370 100.722,175.450 100.799,176.000 100.808 M220.730 101.473 C 221.554 102.296,220.263 103.689,214.200 108.523 C 212.452 109.916,204.004 115.600,203.678 115.601 C 203.525 115.602,202.770 116.000,202.000 116.485 C 195.401 120.642,189.596 121.063,192.153 117.199 C 192.729 116.329,193.200 115.512,193.200 115.383 C 193.200 114.765,201.615 106.400,202.237 106.400 C 202.395 106.400,203.127 105.940,203.863 105.379 C 204.600 104.817,205.742 104.170,206.401 103.940 C 207.060 103.710,207.600 103.384,207.600 103.216 C 207.600 103.047,208.635 102.590,209.900 102.200 C 211.165 101.809,212.380 101.351,212.600 101.180 C 213.724 100.311,219.786 100.529,220.730 101.473 M323.600 101.198 C 323.710 101.353,324.040 101.557,324.334 101.651 C 324.843 101.815,322.403 104.469,319.693 106.700 C 317.807 108.254,312.812 112.000,312.627 112.000 C 312.530 112.000,311.267 112.810,309.821 113.800 C 308.375 114.790,307.056 115.600,306.889 115.600 C 306.722 115.600,305.958 116.027,305.190 116.548 C 303.247 117.869,298.587 119.677,296.532 119.909 C 294.273 120.163,293.924 119.359,295.353 117.199 C 295.929 116.329,296.400 115.512,296.400 115.383 C 296.400 114.964,300.409 110.772,302.936 108.549 C 306.106 105.760,310.666 103.022,313.851 101.995 C 314.703 101.720,315.580 101.355,315.800 101.183 C 316.724 100.461,323.087 100.473,323.600 101.198 M355.500 103.476 C 355.115 103.576,354.485 103.576,354.100 103.476 C 353.715 103.375,354.030 103.293,354.800 103.293 C 355.570 103.293,355.885 103.375,355.500 103.476 M248.384 106.478 C 248.106 107.645,247.664 108.960,247.403 109.400 C 247.141 109.840,246.689 110.965,246.399 111.900 C 246.109 112.835,245.735 113.600,245.567 113.600 C 245.399 113.600,245.066 114.193,244.827 114.918 C 243.648 118.492,239.141 122.400,236.200 122.400 C 233.524 122.400,231.235 120.264,232.647 119.085 C 234.174 117.810,234.400 117.464,234.400 116.400 C 234.400 115.771,234.129 114.987,233.799 114.656 C 233.264 114.121,233.286 114.027,233.999 113.800 C 234.439 113.661,234.800 113.406,234.800 113.234 C 234.800 113.062,235.520 112.597,236.400 112.200 C 237.280 111.803,238.000 111.348,238.000 111.189 C 238.000 111.030,238.495 110.651,239.100 110.346 C 240.535 109.624,243.590 107.589,244.575 106.700 C 245.002 106.315,245.578 106.000,245.856 106.000 C 246.133 106.000,246.504 105.775,246.680 105.500 C 247.040 104.938,248.522 104.023,248.745 104.225 C 248.825 104.298,248.663 105.312,248.384 106.478 M278.438 106.396 C 277.099 112.639,272.199 120.322,268.596 121.828 C 264.570 123.509,259.842 120.372,263.500 118.446 C 264.446 117.947,264.745 115.964,264.041 114.853 C 263.635 114.212,264.394 113.374,266.426 112.220 C 267.182 111.791,267.980 111.295,268.200 111.119 C 269.189 110.324,272.808 108.000,273.057 108.000 C 273.209 108.000,273.618 107.728,273.966 107.395 C 274.862 106.540,278.572 104.073,278.739 104.221 C 278.816 104.289,278.680 105.268,278.438 106.396 M111.500 105.476 C 111.115 105.576,110.485 105.576,110.100 105.476 C 109.715 105.375,110.030 105.293,110.800 105.293 C 111.570 105.293,111.885 105.375,111.500 105.476 M125.800 107.178 C 126.020 107.337,127.235 107.690,128.500 107.963 C 129.765 108.235,131.057 108.715,131.372 109.029 C 131.686 109.343,132.123 109.600,132.342 109.600 C 133.390 109.600,134.478 111.801,134.285 113.530 C 133.848 117.436,126.361 121.608,118.611 122.263 C 116.940 122.404,115.479 122.673,115.363 122.860 C 115.082 123.315,108.974 123.297,108.095 122.838 C 107.713 122.638,104.970 122.278,102.000 122.036 C 99.030 121.795,95.884 121.398,95.008 121.154 C 94.132 120.911,91.612 120.401,89.408 120.022 L 85.400 119.333 88.043 116.767 C 91.602 113.310,94.901 111.204,98.651 109.995 C 99.503 109.720,100.380 109.359,100.600 109.192 C 101.118 108.798,106.962 107.600,108.363 107.600 C 108.955 107.600,109.612 107.428,109.821 107.219 C 110.573 106.467,124.768 106.431,125.800 107.178 M23.236 108.449 C 25.086 108.697,26.690 109.021,26.800 109.169 C 26.910 109.318,28.800 109.769,31.000 110.171 C 33.200 110.573,35.180 111.032,35.400 111.192 C 35.620 111.351,37.420 111.795,39.400 112.179 C 41.380 112.562,43.180 113.011,43.400 113.176 C 43.620 113.341,45.326 113.798,47.190 114.191 C 52.147 115.236,52.386 115.495,49.653 116.854 C 48.414 117.471,47.240 117.981,47.044 117.987 C 46.848 117.994,45.948 118.348,45.044 118.774 C 42.747 119.855,35.438 121.926,32.800 122.242 C 31.590 122.388,30.369 122.689,30.088 122.913 C 29.361 123.488,16.780 123.520,15.561 122.950 C 15.033 122.702,13.610 122.207,12.400 121.849 C 8.245 120.619,4.400 116.943,4.400 114.200 C 4.400 109.099,11.614 106.896,23.236 108.449 M236.700 123.476 C 236.315 123.576,235.685 123.576,235.300 123.476 C 234.915 123.375,235.230 123.293,236.000 123.293 C 236.770 123.293,237.085 123.375,236.700 123.476 M266.700 123.476 C 266.315 123.576,265.685 123.576,265.300 123.476 C 264.915 123.375,265.230 123.293,266.000 123.293 C 266.770 123.293,267.085 123.375,266.700 123.476 M113.107 123.886 C 112.506 123.977,111.426 123.979,110.707 123.890 C 109.988 123.801,110.480 123.726,111.800 123.724 C 113.120 123.722,113.708 123.795,113.107 123.886 M23.107 124.286 C 22.506 124.377,21.426 124.379,20.707 124.290 C 19.988 124.201,20.480 124.126,21.800 124.124 C 23.120 124.122,23.708 124.195,23.107 124.286 M106.505 124.682 C 106.014 124.777,105.114 124.779,104.505 124.687 C 103.897 124.595,104.300 124.517,105.400 124.514 C 106.500 124.511,106.997 124.587,106.505 124.682 M116.300 124.676 C 115.915 124.776,115.285 124.776,114.900 124.676 C 114.515 124.575,114.830 124.493,115.600 124.493 C 116.370 124.493,116.685 124.575,116.300 124.676 M106.800 148.000 C 106.470 148.213,105.750 148.369,105.200 148.347 C 104.277 148.309,104.293 148.282,105.400 148.000 C 107.129 147.560,107.481 147.560,106.800 148.000 " stroke="none" fill="#252a34" fill-rule="evenodd"/>
		</g></svg>