<svg xmlns="http://www.w3.org/2000/svg" width="453.018028" height="453.022299" viewBox="0 0 119.86102 119.86215"><defs><clipPath id="a"><path d="M0 500h500V0H0z"/></clipPath><clipPath id="b"><path d="M327.676 109.362c0-38.175 30.946-69.122 69.12-69.122 38.174 0 69.12 30.947 69.12 69.122 0 38.173-30.946 69.12-69.12 69.12-38.174 0-69.12-30.947-69.12-69.12"/></clipPath></defs><g clip-path="url(#a)" transform="matrix(.86806 0 0 -.86806 -284.440964 154.792704)"><path d="M465.916 109.3613c0-38.174-30.946-69.121-69.12-69.121-38.174 0-69.12 30.947-69.12 69.121 0 38.174 30.946 69.12 69.12 69.12 38.174 0 69.12-30.946 69.12-69.12" fill="#f9da55"/></g><g clip-path="url(#b)" transform="matrix(.86806 0 0 -.86806 -284.440964 154.792704)"><path d="M377.7949 154.4932c-.252.297-.502.597-.74.906-.156.201.083.458.284.283 3.25-2.848 6.339-5.607 10.235-7.575 3.802-1.92 8.073-3.16 12.321-3.528 8.477-.729 16.106 2.488 22.694 7.578.319.245.683-.276.419-.545-.84-.854-1.732-1.635-2.66-2.351.968-3.721.963-8.012.939-11.824-.013-2.16-.094-4.481-.449-6.727.818 1.206 2.005 2.226 3.361 2.24-.062 2.71.107 5.466.162 8.172.058 2.771-.029 5.633.412 8.379-.125.102-.186.272-.069.431 1.184 1.59 2.627 2.904 3.664 4.623.901 1.491 1.513 3.097 2.042 4.74-1.492-1.518-4.014-2.712-5.813-2.159-.177-.116-.426.054-.394.287.446 3.112.611 6.086.738 9.188-.562-.917-1.419-1.639-2.288-2.292-.979-.739-2.109-1.583-3.352-1.609-.062-.026-.127-.041-.198-.028-.134.024-.277.058-.413.083-.045.01-.087.008-.134.02-.007.002-.009.01-.015.011-13.13 2.652-39.198 17.239-43.863-3.802-.066-.294-.404-.354-.627-.238-9.27-4.578-7.618-18.224-5.859-26.741.916-.059 1.684-.583 2.294-1.303-.569 4.32-.377 9.033.58 13.116.909 3.884 3.004 8.703 6.729 10.665" fill="#1e353f"/><path d="M377.2002 154.9482c-.907-.971-1.941-1.849-3.102-2.51-1.282-.731-4.075-1.997-4.815.18-.161.473-.227.917-.236 1.345-3.447-6.167-2.183-15.518-.855-21.948.916-.059 1.684-.583 2.294-1.303-.569 4.32-.377 9.033.579 13.116.909 3.884 3.005 8.703 6.73 10.665-.16.187-.313.382-.468.572-.043-.041-.085-.073-.127-.117M428.3682 154.5557c.9 1.49 1.513 3.097 2.042 4.739-1.492-1.517-4.015-2.712-5.813-2.159-.177-.115-.426.055-.394.287.01.068.017.135.026.202-.959-1.59-2.136-3.027-3.547-4.219-7.182-6.065-17.249-2.676-25.342-.319.134-.391.269-.783.419-1.174.109-.281-.118-.697-.422-.743-3.962-.592-8.018.495-11.559 2.286-1.996 1.009-4.094 3.374-6.089 1.921 3.123-2.74 6.129-5.373 9.885-7.269 3.802-1.92 8.072-3.16 12.32-3.529 8.478-.728 16.107 2.489 22.695 7.579.319.245.682-.277.419-.545-.84-.855-1.732-1.635-2.661-2.352.968-3.721.963-8.012.94-11.823-.013-2.16-.094-4.482-.449-6.728.818 1.206 2.005 2.227 3.361 2.241-.062 2.709.107 5.465.162 8.171.058 2.772-.029 5.633.411 8.379-.125.103-.185.273-.068.432 1.184 1.59 2.627 2.903 3.664 4.623" fill="#101f23"/><path d="M377.6182 135.0937c.863 1.355 2.171 2.592 3.853 2.747 1.59.149 3.717-.821 4.779-1.975.376-.409-.011-.922-.499-.857-1.221.166-2.187 1.088-3.335 1.512-.805.299-1.798.411-2.618.067-.703-.296-1.39-1.163-1.957-1.667-.118-.102-.315.03-.223.173m26.792-.297c.867 1.416 2.463 3.29 4.273 3.363 1.806.072 3.201-1.622 4.017-3.035.112-.195-.143-.371-.301-.23-1.307 1.153-2.637 2.438-4.46 1.526-1.11-.555-1.917-1.556-3.061-2.093-.291-.136-.66.156-.468.469m-31.902-3.136c3.069 1.471 6.781 1.335 10.105 1.242 2.812-.08 6.726.186 9.272-1.373.161-.001.319-.064.41-.221.006-.009.009-.023.013-.032.005-.002.008-.003.012-.005.117-.089.145-.209.132-.319.611-1.28.793-2.977.626-4.642.573.401 1.249.662 1.912.718 1.214.101 2.364-.894 2.931-1.92-.151 1.979-.06 5.108 1.379 6.306-.026.095-.001.201.095.246 3.069 1.471 6.782 1.335 10.105 1.242 2.81-.08 6.726.186 9.272-1.373.16-.001.32-.064.409-.221.006-.009.009-.023.014-.032.005-.002.009-.003.012-.005.117-.089.144-.209.132-.319.117-.243.202-.514.289-.786.363 2.689.656 5.351.597 8.151-.074 3.471-.577 6.953-.582 10.422-12.424-8.939-31.431-6.086-41.466 5.309-1.406-1.66-2.883-3.109-3.947-5.048-1.062-1.937-1.786-4.046-2.237-6.207-.874-4.199-.372-8.297-.368-12.469.201.44.459.817.788 1.09-.025.095-.001.201.095.246" fill="#e8a46b"/><path d="M383.3057 125.2549c.192-.045.456.052.687.071.291.542.368 1.366-.354 1.504-.358.068-.763-.229-1.108-.521.107-.452.306-.946.775-1.054" fill="#fff"/><path d="M371.2812 120.8711c-.169-.037-.35.016-.384.224-.207 1.247-.274 2.486-.674 3.7-.229.696-.526 1.391-.912 2.013-.393.904-1.139.959-2.234.175-.319-.495-.522-1.041-.609-1.634-.029-.256-.446-.371-.493-.066-.268 1.772 1.559 4.652 3.564 3.281.597-.406 1.078-1.041 1.444-1.783.007.347.024.699.057 1.05-.033.034-.071.063-.083.122-.082.367-.145.75-.214 1.13-.256.404-.537.799-.868 1.058-2.555 1.993-4.215-.477-4.842-2.231-.574-1.606-.552-3.388-.22-5.042.548-2.721 2.716-9.105 6.472-7.338-.105 1.793-.095 3.586-.004 5.341M424.292 131.7832c-1.645.063-2.98-2.209-3.785-3.211-.037-.047-.083-.071-.13-.088-.069-.263-.135-.527-.217-.784-.007-1.063-.025-2.127-.053-3.188.898 3.025 3.067 6.283 5.299 3.903.136-.145.046-.418-.171-.409-1.73.073-2.928-1.277-3.721-2.645-.793-1.367-.916-2.753-1.361-4.224-.027-.087-.1-.131-.176-.137-.083-1.811-.193-3.619-.331-5.425 2.833-1.969 4.854 1.605 5.574 3.753.635 1.893 1.073 3.938 1.27 5.925.164 1.648.561 4.808-.932 6.009-.309.251-.611.394-.904.466-.116-.074-.272-.05-.362.055" fill="#e8a46b"/><path d="M408.6182 125.2549c.191-.045.456.052.687.071.291.542.367 1.366-.354 1.504-.359.068-.762-.229-1.108-.521.106-.452.307-.946.775-1.054" fill="#fff"/><path d="M436.8516 69.9863c-.732 2.297-1.611 6.777-3.613 8.245-1.16.851-3.134 1.267-4.47 1.774-1.255.475-2.508.948-3.765 1.414-2.654.98-5.317 1.938-8.001 2.833-1.047.347-2.099.666-3.154.971-1.374-16.339-33.363-18.176-32.551-.155-1.065-.31-2.129-.621-3.183-.949-2.508-.777-5.011-1.569-7.508-2.375-2.512-.814-5.277-1.449-7.656-2.613-2.822-1.381-3.599-4.071-4.631-6.823-.874-2.33-1.734-4.668-2.516-7.031-1.297-3.912-2.279-7.871-3.014-11.905 3.024-2.521 6.097-4.777 9.404-6.703-.909 7.963-.853 16.11-1.154 24.106-.013.347.506.338.534 0 .647-8.183 1.699-16.487 1.668-24.709 2.418-1.331 4.965-2.486 7.73-3.415 8.108-2.721 16.712-3.521 25.225-3.135 8.951.405 18.092 1.875 26.678 4.466 2.178.655 4.248 1.442 6.237 2.338-.237 4.241.331 8.702.757 12.909.421 4.138.989 8.277 1.861 12.342.058.26.492.204.467-.064-.414-4.245-.924-8.482-1.309-12.734-.358-3.981-.353-8.048-.814-12.017 3.662 1.754 7.014 3.946 10.094 6.632-.249 2.875-.66 5.734-1.236 8.563-.554 2.712-1.241 5.394-2.08 8.035" fill="#6ff757"/><path d="M361.0508 70.8047c-.449 1.681-.861 3.372-1.271 5.065-.573-1.1-.995-2.321-1.46-3.561-.874-2.33-1.734-4.668-2.516-7.031-1.297-3.912-2.279-7.871-3.014-11.906 3.024-2.52 6.097-4.776 9.404-6.703-.91 7.964-.853 16.111-1.154 24.107-.001.012.01.018.011.029M429.376 54.3828c-5.79-6.149-13.068-11.185-21.111-12.83-11.603-2.372-24.257.854-33.7 7.939-4.625 3.471-8.481 7.71-10.771 13.081-.787 1.846-1.432 3.737-2.006 5.648.642-7.354 1.482-14.786 1.453-22.154 2.418-1.331 4.966-2.487 7.731-3.415 8.107-2.721 16.712-3.522 25.224-3.135 8.951.404 18.092 1.875 26.679 4.466 2.178.655 4.247 1.441 6.236 2.337-.147 2.639.018 5.367.265 8.063M437.9785 66.0674c-.571-.998-1.157-1.984-1.771-2.938-1.603-2.492-3.461-4.966-5.531-7.316-.173-3.022-.255-6.066-.603-9.058 3.662 1.755 7.014 3.947 10.094 6.633-.249 2.875-.66 5.734-1.236 8.563-.281 1.38-.599 2.753-.953 4.116" fill="#42c642"/><path d="M390.3398 103.5625c-.252.127-.145.589.149.553 2.257-.274 4.392-.49 6.657-.099 2.007.347 3.86 1.174 5.832 1.632.295.069.452-.319.202-.482-3.473-2.26-8.996-3.541-12.84-1.604m1.549 13.211c.391 2.568.99 5.118 1.715 7.608.084.291.501.168.445-.121-.521-2.671-.942-5.341-1.218-8.052-.107-1.061-.539-2.83-.287-3.891.46-1.928 3.178-1.915 4.558-1.136.206.115.489-.129.342-.343-1.23-1.791-5.084-1.793-5.993.434-.607 1.489.202 3.958.438 5.501m-10.78 8.062c-.086.787.318 1.759.988 2.243.606.836 1.723 1.211 2.635.381 1.151-1.045.59-2.834-.57-3.608-1.093-.729-2.882-.567-3.053.984m26.3 2.243c.606.836 1.724 1.211 2.635.381 1.151-1.045.591-2.834-.569-3.608-1.095-.729-2.883-.567-3.053.984-.088.787.318 1.759.987 2.243m-17.276-47.228c1.938-1.722 4.517-2.875 7.137-2.911 5.198-.07 10.325 4.811 12.019 9.524-1.424.368-2.848.729-4.271 1.101l-1.254.336-.013 1.131c.001 1.352.046 2.71.106 4.052l.028.616.941.207c2.575.616 5.032 1.604 7.068 3.385 2.475 2.166 4.098 5.187 5.077 8.292 1.791 5.683 1.898 11.867 2.338 17.883-.245-.646-.546-1.234-.904-1.725-1.994-2.733-5.677-4.123-8.947-3.501-.211.039-.159.375.05.369 2.858-.096 5.822 1.127 7.703 3.314 1.831 2.129 2.109 6.278 1.115 8.862-3.111.558-6.047 1.041-9.265 1.118-2.881.069-5.648-.271-8.483-.544-1.884-1.668-1.836-6.423-1.037-8.468 1.049-2.683 3.726-3.752 6.34-4.34.272-.062.204-.48-.065-.478-3.467.014-7.276 2.428-7.791 6.045-.021.15-.041.322-.06.506-.098-.107-.265-.148-.407-.027-.733.618-1.918 1.294-2.882 1.064-.655-.154-1.262-.549-1.861-.897-.277-1.153-.711-2.22-1.296-3.023-1.994-2.733-5.679-4.123-8.948-3.501-.21.039-.159.375.049.369 2.859-.096 5.824 1.127 7.703 3.314 1.832 2.129 2.11 6.278 1.118 8.862-3.114.558-6.048 1.041-9.268 1.118-2.881.069-5.646-.271-8.482-.544-1.883-1.668-1.836-6.423-1.037-8.468 1.048-2.683 3.725-3.752 6.339-4.34.274-.062.206-.48-.065-.478-2.573.01-5.333 1.344-6.796 3.512.102-2.021.166-4.043.303-6.044.032-.084.038-.176.017-.267.341-4.721 1.121-9.322 3.832-13.535 3.414-5.31 8.458-6.824 13.955-7.837l.862-.156c1.343-.235 2.709-.451 4.081-.694.333-.058.238-.564-.077-.568-1.307-.014-2.624.037-3.929.162.085-1.215.163-2.43.22-3.646l.039-.879-1.03-.345c-1.339-.44-2.691-.846-4.048-1.243.964-2.508 1.678-4.821 3.776-6.683" fill="#e8a46b"/><path d="M373.8643 143.458c.99.937 2.895 3.265 4.509 3.057 2.129-.276 3.475-2.334 5.344-3.325 2.559-1.356 5.305-2.311 8.151-2.864 6.013-1.174 12.798-1.601 18.845-.365 3.128.637 6.322 1.594 8.97 3.445.07.048.147.105.223.157-.136 1.727-.26 3.453-.263 5.176-12.425-8.938-31.431-6.086-41.467 5.31-1.405-1.66-2.882-3.11-3.946-5.048-1.062-1.938-1.786-4.046-2.237-6.207-.117-.568-.207-1.135-.28-1.699.669.824 1.37 1.622 2.151 2.363M370.8975 121.0947c-.207 1.247-.274 2.486-.674 3.7-.229.696-.526 1.392-.912 2.014-.393.903-1.14.959-2.234.175-.175-.27-.307-.559-.411-.859.915.015 1.751-.558 2.227-1.424.392-.71.265-1.704.19-2.462-.148-1.495-.151-2.45.88-3.701.659-.8 1.006-1.991.977-3.128.115.039.227.065.345.121-.105 1.793-.095 3.585-.004 5.34-.169-.037-.35.016-.384.224M421.1621 116.8223c-1.114 1.958-.178 4.17.268 6.212.318 1.455.723 2.777 1.39 4.002-.52-.477-.956-1.071-1.306-1.675-.793-1.367-.916-2.753-1.361-4.225-.027-.086-.1-.13-.177-.136-.083-1.811-.192-3.619-.33-5.425 1.343-.935 2.501-.615 3.427.202-.714-.12-1.396.139-1.911 1.045M393.6621 108.8301c1.312-.657 2.531.085 2.893 1.222-1.089-.621-2.659-.677-3.808-.109.191-.482.473-.891.915-1.113M395.0752 93.0703c.036-.007.07-.01.106-.018.333-.058.239-.564-.077-.568-1.306-.014-2.624.037-3.928.162.075-1.076.139-2.152.195-3.229 3.676-.204 7.4.259 10.856 1.513.496.181 1.028.387 1.572.611.017.515.035 1.031.057 1.543l.029.615.941.207c1.987.476 3.902 1.179 5.612 2.291-3.705-1.573-7.794-2.472-11.669-2.885-1.226-.131-2.46-.208-3.694-.242" fill="#d37f5e"/><path d="M403.7637 87.9004l-.013 1.131c0 .393.011.788.018 1.182-.093-.036-.19-.074-.28-.107-3.907-1.417-7.986-2.045-12.059-1.868l.005-.117-1.029-.345c-1.34-.439-2.692-.846-4.049-1.243.965-2.508 1.678-4.82 3.776-6.683 1.939-1.721 4.517-2.875 7.137-2.911 5.198-.07 10.325 4.811 12.019 9.524-1.423.368-2.848.729-4.271 1.101z" fill="#e8a46b"/><path d="M407.4092 127.0781c.605.836 1.724 1.211 2.635.382 1.151-1.046.591-2.834-.57-3.609-1.094-.729-2.882-.567-3.052.985-.088.786.318 1.759.987 2.242m-3.017-8.121c.094.005.191-.006.292-.051.111-.052.235-.096.352-.142.281-.076.562-.149.845-.212.083-.019.125-.074.149-.137 1.298-.381 2.776-.558 4.032-.242-.201.022-.405.03-.604.067-.211.039-.159.375.05.369 2.858-.095 5.822 1.127 7.703 3.315 1.831 2.129 2.109 6.277 1.115 8.861-3.111.559-6.047 1.041-9.266 1.118-2.88.07-5.647-.27-8.482-.544-1.884-1.668-1.836-6.423-1.037-8.468.848-2.17 2.765-3.276 4.851-3.934M382.0967 127.0781c.606.836 1.724 1.211 2.635.382 1.151-1.046.591-2.834-.57-3.609-1.093-.729-2.881-.567-3.053.985-.086.786.318 1.759.988 2.242m-3.104-8.526c.078-.017.123-.066.147-.122 1.125-.209 2.265-.291 3.353-.136-.099.103-.043.321.127.315 2.859-.095 5.824 1.127 7.704 3.315 1.832 2.129 2.109 6.277 1.117 8.861-3.114.559-6.048 1.041-9.268 1.118-2.881.07-5.646-.27-8.482-.544-1.883-1.668-1.836-6.423-1.036-8.468 1.047-2.682 3.724-3.751 6.338-4.339" fill="#eaaf83"/><path d="M386.502 76.2441c2.911-2.351 6.616-3.14 10.297-2.965 7.442.353 14.692 4.594 16.023 12.232-.841.235-1.681.468-2.525.69-1.285-5.303-8.02-10.743-13.411-10.437-5.272.298-11.355 4.833-11.31 10.543-1.161-.339-2.324-.67-3.484-1.004.928-3.539 1.294-6.542 4.41-9.059" fill="#42c642"/><path d="M394.7686 161.6729c-1.107-.161-2.437-.255-3.509.064-.365.108-.95.112-1.243-.182-1.5-1.503-2.41-.027-4.101.294-.459.089-.821-.191-.86-.655-.059-.705-.064-1.41-.075-2.113-1.218 1.021-2.313 2.227-3.862 2.682-.083.022-.133-.066-.103-.133.907-1.96 2.503-3.654 4.307-4.821.531-.347 1.224.11 1.23.705.008.846-.067 1.678-.11 2.516 1.069-.791 2.222-1.983 3.454-.664 1.397 1.494 3.723-.105 5.194 1.755.213.269.016.601-.322.552M396.5557 162.8037c-.471.204-.963.291-1.458.441-.376.114-.519-.449-.16-.58.538-.192 1.013-.41 1.572-.217.142.048.215.283.046.356M398.7031 164.3623c-.022.137-.086.252-.11.385-.158.901-1.649.525-1.39-.383.117-.405.334-.638.731-.771.493-.167.844.335.769.769" fill="#fff"/><path d="M386.25 135.8662c-1.062 1.153-3.188 2.123-4.779 1.975-1.682-.156-2.99-1.392-3.853-2.747-.092-.143.106-.276.223-.173.567.504 1.254 1.371 1.957 1.667.82.343 1.813.231 2.618-.068 1.148-.424 2.114-1.345 3.335-1.511.488-.066.875.448.499.857M412.7002 135.125c-.816 1.413-2.211 3.106-4.017 3.035-1.81-.073-3.406-1.947-4.273-3.363-.192-.314.177-.606.468-.469 1.144.536 1.951 1.538 3.061 2.093 1.823.912 3.153-.373 4.46-1.526.158-.141.413.035.301.23M383.9922 125.3262c-.23-.02-.494-.116-.687-.071-.468.108-.667.601-.775 1.053.346.292.75.589 1.108.522.722-.139.645-.962.354-1.504m.739 2.134c-.911.829-2.028.454-2.635-.382-.669-.483-1.074-1.456-.988-2.242.172-1.552 1.96-1.714 3.054-.985 1.16.775 1.721 2.563.569 3.609M409.3047 125.3262c-.23-.02-.495-.116-.687-.071-.467.108-.668.601-.775 1.053.347.292.749.589 1.108.522.721-.139.645-.962.354-1.504m.739 2.134c-.911.829-2.029.454-2.635-.382-.668-.483-1.075-1.456-.987-2.242.17-1.552 1.958-1.714 3.053-.985 1.16.775 1.721 2.563.569 3.609"/><path d="M430.0732 46.7559c.461 3.97.456 8.036.814 12.018.385 4.252.895 8.489 1.309 12.734.025.268-.409.323-.467.063-.872-4.065-1.44-8.204-1.861-12.341-.426-4.207-.993-8.668-.757-12.91-1.989-.896-4.059-1.682-6.236-2.337-8.587-2.591-17.728-4.062-26.679-4.466-8.513-.387-17.117.414-25.225 3.135-2.764.928-5.312 2.083-7.73 3.415.031 8.221-1.021 16.526-1.668 24.709-.027.337-.547.346-.533 0 .301-7.997.244-16.143 1.153-24.107-3.307 1.927-6.38 4.183-9.403 6.703.734 4.034 1.717 7.993 3.013 11.905.783 2.364 1.642 4.702 2.516 7.032 1.032 2.752 1.81 5.441 4.631 6.822 2.379 1.164 5.144 1.8 7.656 2.613 2.497.807 5 1.599 7.508 2.375 1.055.328 2.118.64 3.184.95-.813-18.022 31.176-16.184 32.55.155 1.055-.306 2.108-.624 3.155-.972 2.683-.894 5.346-1.852 8.001-2.833 1.256-.466 2.509-.938 3.764-1.414 1.336-.507 3.31-.923 4.47-1.773 2.002-1.468 2.881-5.949 3.613-8.246.839-2.64 1.527-5.323 2.08-8.035.577-2.829.988-5.687 1.237-8.562-3.08-2.687-6.433-4.878-10.095-6.633m-44.497 39.551c-.045-5.71 6.038-10.244 11.309-10.543 5.392-.306 12.126 5.135 13.412 10.437.843-.221 1.684-.455 2.525-.69-1.331-7.638-8.581-11.879-16.023-12.232-3.681-.174-7.386.615-10.297 2.965-3.117 2.517-3.483 5.52-4.41 9.059 1.16.334 2.323.665 3.484 1.004m4.829 1.47l1.029.344-.039.88c-.056 1.216-.135 2.431-.219 3.646 1.304-.125 2.622-.176 3.928-.162.316.003.41.509.077.568-1.372.243-2.737.459-4.081.693l-.861.156c-5.497 1.013-10.541 2.528-13.955 7.837-2.711 4.213-3.491 8.815-3.832 13.536.02.09.015.182-.018.267-.136 2.001-.201 4.023-.302 6.044 1.462-2.168 4.222-3.502 6.795-3.513.272-.002.339.416.066.479-2.614.588-5.291 1.657-6.339 4.34-.8 2.045-.847 6.8 1.036 8.468 2.836.273 5.602.613 8.483.543 3.219-.077 6.154-.559 9.267-1.118.992-2.584.715-6.732-1.117-8.861-1.88-2.188-4.845-3.41-7.703-3.314-.208.005-.26-.331-.049-.37 3.269-.622 6.953.769 8.947 3.501.585.804 1.02 1.87 1.296 3.024.6.347 1.206.743 1.862.896.963.231 2.149-.445 2.881-1.063.143-.121.31-.08.408.026.018-.183.039-.355.059-.506.516-3.616 4.324-6.03 7.791-6.045.27-.002.338.416.066.479-2.615.588-5.291 1.657-6.34 4.34-.799 2.045-.847 6.8 1.037 8.468 2.835.273 5.601.613 8.482.543 3.219-.077 6.155-.559 9.266-1.118.994-2.584.716-6.732-1.115-8.861-1.881-2.188-4.845-3.41-7.703-3.314-.209.005-.261-.331-.05-.37 3.269-.622 6.953.769 8.947 3.501.357.492.658 1.079.903 1.726-.439-6.017-.547-12.2-2.338-17.884-.978-3.104-2.601-6.126-5.077-8.291-2.036-1.781-4.493-2.769-7.067-3.386l-.941-.207-.029-.615c-.059-1.343-.104-2.7-.105-4.053l.012-1.13 1.254-.336c1.423-.372 2.848-.734 4.272-1.101-1.695-4.714-6.821-9.595-12.02-9.524-2.62.036-5.198 1.189-7.136 2.911-2.098 1.862-2.812 4.175-3.777 6.682 1.358.398 2.709.804 4.049 1.244m-18.412 55.017c.451 2.161 1.175 4.27 2.237 6.207 1.064 1.939 2.541 3.388 3.947 5.048 10.035-11.396 29.042-14.248 41.466-5.31.005-3.468.508-6.95.582-10.421.059-2.8-.234-5.462-.597-8.151-.087.272-.172.543-.289.786.012.11-.015.23-.132.319-.003.002-.007.003-.012.005-.005.009-.008.023-.014.032-.089.157-.249.219-.409.22-2.546 1.56-6.462 1.294-9.272 1.373-3.323.094-7.036.23-10.105-1.241-.096-.045-.121-.151-.095-.246-1.439-1.198-1.53-4.327-1.379-6.306-.567 1.026-1.717 2.021-2.931 1.919-.663-.055-1.339-.316-1.912-.717.167 1.665-.015 3.362-.626 4.642.013.11-.015.23-.132.319-.004.002-.007.003-.012.005-.005.009-.007.023-.013.032-.091.157-.249.219-.41.22-2.546 1.56-6.46 1.294-9.272 1.373-3.324.094-7.036.23-10.105-1.241-.096-.045-.121-.151-.095-.246-.329-.273-.587-.65-.788-1.09-.004 4.172-.506 8.27.368 12.469m-.928 1.034c-.956-4.083-1.148-8.796-.579-13.116-.61.721-1.378 1.244-2.294 1.304-1.76 8.516-3.411 22.162 5.859 26.74.222-.115.561-.056.626.238 4.666 21.041 30.734 6.454 43.864 3.802.006-.001.008-.009.014-.011.047-.011.089-.009.134-.019.137-.026.28-.06.413-.083.072-.014.137.002.199.027 1.243.026 2.373.87 3.352 1.609.868.654 1.726 1.375 2.287 2.292-.127-3.102-.292-6.076-.737-9.188-.032-.232.217-.402.393-.287 1.799-.553 4.322.641 5.814 2.159-.529-1.643-1.142-3.249-2.042-4.739-1.037-1.72-2.481-3.033-3.664-4.623-.117-.159-.057-.329.068-.432-.44-2.746-.353-5.607-.411-8.379-.056-2.706-.225-5.462-.162-8.172-1.356-.013-2.543-1.034-3.361-2.24.355 2.246.436 4.567.449 6.728.023 3.811.028 8.102-.94 11.823.929.717 1.821 1.497 2.661 2.351.263.269-.1.79-.419.545-6.588-5.089-14.217-8.306-22.695-7.578-4.248.368-8.518 1.609-12.32 3.529-3.897 1.967-6.985 4.726-10.235 7.575-.202.175-.441-.082-.285-.283.239-.31.489-.61.741-.907-3.725-1.962-5.821-6.781-6.73-10.665m-6.252-20.96c-.332 1.655-.354 3.436.22 5.042.627 1.754 2.287 4.224 4.842 2.231.331-.259.612-.654.868-1.058.069-.38.132-.763.214-1.13.012-.058.05-.088.083-.122-.033-.35-.05-.703-.057-1.05-.366.743-.847 1.377-1.444 1.784-2.005 1.371-3.832-1.51-3.564-3.282.047-.304.464-.19.493.066.087.594.29 1.139.609 1.635 1.095.784 1.841.728 2.234-.175.386-.622.683-1.318.912-2.014.4-1.214.467-2.453.674-3.7.034-.208.215-.261.384-.224-.091-1.755-.101-3.548.004-5.341-3.756-1.767-5.924 4.618-6.472 7.338m60.744 8.394c1.494-1.2 1.097-4.36.933-6.009-.197-1.986-.635-4.031-1.271-5.925-.719-2.147-2.741-5.721-5.573-3.753.138 1.806.247 3.615.33 5.425.076.006.15.05.177.137.444 1.472.567 2.857 1.36 4.224.793 1.369 1.992 2.718 3.722 2.645.217-.009.307.265.171.409-2.232 2.38-4.401-.878-5.299-3.903.028 1.061.046 2.125.053 3.188.082.257.147.522.217.785.047.016.092.041.13.087.804 1.002 2.14 3.275 3.785 3.211.09-.105.246-.129.362-.054.293-.073.595-.215.903-.467m15.746-76.845c-.287 2.536-.715 5.043-1.17 7.411-.606 3.149-1.427 6.254-2.435 9.296-.739 2.231-1.446 5.143-2.895 7.046-1.427 1.881-4.477 2.449-6.566 3.258-3.058 1.18-6.124 2.339-9.226 3.4-1.713.587-3.462 1.188-5.231 1.754-.094.086-.224.119-.353.109-2.761.872-5.573 1.652-8.403 2.143-.011 1.467-.078 2.941-.16 4.397 2.294.388 4.513 1.08 6.492 2.415 2.658 1.793 4.591 4.577 5.836 7.487 1.477 3.453 2.019 7.198 2.338 10.912.019.222.031.44.05.661 1.596-.943 3.656-.457 4.963.943 2.284 2.443 2.808 6.892 3.068 10.06.192 2.356.317 6.235-2.568 7.13-.008.002-.014.002-.021.004.496 2.35.257 5.024.317 7.361.078 3.073.354 6.259-.007 9.322 3.52 2.031 5.793 7.047 6.036 10.942.002.031-.02.046-.025.073.01.02.025.04.035.064.094.192-.094.371-.284.283-1.069-.493-1.965-1.351-2.998-1.927-1.011-.564-2.084-.785-3.141-1.161 1.37 3.007 1.067 6.809.587 9.961-.027.171-.17.222-.306.193-.066.012-.137.006-.195-.047-1.854-1.662-3.592-3.608-5.981-4.46-4.508 2.036-9.6 3.185-14.302 4.69-4.664 1.49-9.42 2.941-14.35 3.108-4.052.137-8.683-.554-11.981-3.1-2.757-2.128-4.186-5.539-4.555-8.931-4.458-.677-6.872-6.5-7.544-10.361-.525-3.018-.446-6.086-.282-9.133.137-2.573.234-5.401 1.367-7.764-.12-.026-.24-.052-.364-.092-2.568-.861-3.545-4.342-3.568-6.727-.028-3.016 1.194-6.985 3.182-9.29 1.181-1.369 3.103-2.191 4.706-1.468.431-5.044 1.784-10.012 4.682-14.031 3.414-4.741 8.665-6.898 14.206-7.594.021-1.33.045-2.663.099-3.991-4.827-1.117-9.591-2.734-14.289-4.192-2.802-.868-5.592-1.768-8.377-2.689-2.165-.716-4.694-1.265-6.578-2.616-1.503-1.079-2.314-2.679-2.984-4.352-1.071-2.663-2.044-5.377-2.979-8.091-1.419-4.122-2.678-8.361-3.247-12.693l-.17-1.417.8-.853c7.695-7.945 19.904-11.921 30.426-13.214 7.491-.919 15.086-.599 22.549.407 7.553 1.016 15.244 2.469 22.361 5.259 4.383 1.717 8.82 4.075 12.407 7.284l1.2 1.131z"/><path d="M402.9775 105.6484c-1.972-.458-3.825-1.285-5.832-1.632-2.265-.39-4.399-.175-6.656.099-.294.036-.402-.426-.15-.553 3.844-1.937 9.367-.656 12.84 1.604.25.163.093.551-.202.482M397.1016 111.1816c-1.38-.779-4.098-.792-4.558 1.136-.252 1.061.18 2.83.287 3.891.276 2.711.698 5.381 1.218 8.052.056.289-.361.412-.445.121-.725-2.49-1.323-5.04-1.715-7.608-.235-1.543-1.045-4.012-.437-5.501.908-2.227 4.762-2.225 5.993-.434.146.214-.137.458-.343.343"/></g></svg>